<svg xmlns="http://www.w3.org/2000/svg" viewBox="0 0 64 64" fill="none">
  <!-- Rocket launching -->
  <path d="M34 10c-8 8-12 18-12 26l8 8c8 0 18-4 26-12" stroke="#f2ca50" stroke-width="2" fill="rgba(242,202,80,0.06)"/>
  <circle cx="40" cy="24" r="4" stroke="#f2ca50" stroke-width="2" fill="rgba(242,202,80,0.15)"/>
  <path d="M22 36l-6 2 2 10 10 2 2-6" stroke="#f2ca50" stroke-width="1.5" stroke-linecap="round" stroke-linejoin="round"/>
  <path d="M26 44l-6 6" stroke="#f2ca50" stroke-width="1.5" stroke-linecap="round"/>
  <path d="M18 50l-4 4" stroke="#f2ca50" stroke-width="1.5" stroke-linecap="round"/>
  <path d="M20 56l-6 2" stroke="#f2ca50" stroke-width="1.5" stroke-linecap="round"/>
  <!-- Flame -->
  <path d="M16 40c-3 2-5 6-4 10 1-2 3-3 5-3-1 2 0 4 2 5 0-3 2-5 4-6" stroke="#50df38" stroke-width="1.5" stroke-linecap="round" stroke-linejoin="round" fill="rgba(80,223,56,0.1)"/>
</svg>
