<svg xmlns="http://www.w3.org/2000/svg" viewBox="0 0 220 48" role="img" aria-labelledby="title desc">
  <title id="title">Meta</title>
  <desc id="desc">Meta wordmark with infinity symbol</desc>
  <defs>
    <linearGradient id="metaGradient" x1="0" y1="0" x2="1" y2="1">
      <stop offset="0%" stop-color="#0a6cff"/>
      <stop offset="100%" stop-color="#1b8cff"/>
    </linearGradient>
  </defs>
  <path d="M18 31.5c0-8.3 6.1-18.5 13.8-18.5 5.8 0 11.3 5.6 18.7 16.2C57 18.6 62.4 13 68.3 13 76 13 82 23.2 82 31.5 82 39.6 77.4 44 71.4 44c-6.3 0-12-5.7-20.9-18.1C41.8 38.3 36 44 29.7 44 23 44 18 39.2 18 31.5Zm9.2-.7c0 3.7 1.9 6.1 4.8 6.1 4.2 0 8.5-5.1 14.6-14-6-8.9-10.3-14-14.6-14-3 0-4.8 2.4-4.8 6.1 0 4.5 2 8.9 5.6 14-3.7 5-5.6 9.3-5.6 13.8Zm45.6 0c0-4.5-2-8.8-5.6-13.8 3.7-5.1 5.6-9.5 5.6-14 0-3.7-1.9-6.1-4.8-6.1-4.2 0-8.5 5.1-14.6 14 6 8.9 10.3 14 14.6 14 3 0 4.8-2.4 4.8-6.1Z" fill="url(#metaGradient)" transform="translate(-18 -5) scale(1.05) translate(18 5)"/>
  <text x="88" y="33" fill="#dfe2f3" font-size="28" font-weight="700" font-family="Inter, Arial, sans-serif">Meta</text>
</svg>
